<svg width="20" height="20" viewBox="0 0 20 20" fill="none" xmlns="http://www.w3.org/2000/svg">
<circle cx="10" cy="10" r="10" fill="#8FFF00"/>
<g clip-path="url(#clip0_49_3211)">
<path d="M10 16C10 16 14.5 11.7355 14.5 8.5C14.5 7.30653 14.0259 6.16193 13.182 5.31802C12.3381 4.47411 11.1935 4 10 4C8.80653 4 7.66193 4.47411 6.81802 5.31802C5.97411 6.16193 5.5 7.30653 5.5 8.5C5.5 11.7355 10 16 10 16ZM10 10.75C9.40326 10.75 8.83097 10.5129 8.40901 10.091C7.98705 9.66903 7.75 9.09674 7.75 8.5C7.75 7.90326 7.98705 7.33097 8.40901 6.90901C8.83097 6.48705 9.40326 6.25 10 6.25C10.5967 6.25 11.169 6.48705 11.591 6.90901C12.0129 7.33097 12.25 7.90326 12.25 8.5C12.25 9.09674 12.0129 9.66903 11.591 10.091C11.169 10.5129 10.5967 10.75 10 10.75Z" fill="#2A332C"/>
</g>
<defs>
<clipPath id="clip0_49_3211">
<rect width="12" height="12" fill="white" transform="translate(4 4)"/>
</clipPath>
</defs>
</svg>
