<svg width="22" height="41" viewBox="0 0 22 41" fill="none" xmlns="http://www.w3.org/2000/svg">
<mask id="path-1-inside-1_71_5092" fill="white">
<path fill-rule="evenodd" clip-rule="evenodd" d="M1.2287e-06 22.55L10.8253 41L21.6506 22.55L14.3253 22.55L14.3253 1.01874e-06L6.32532 2.13131e-06L6.32533 22.55L1.2287e-06 22.55Z"/>
</mask>
<path d="M10.8253 41L9.96282 41.5061L10.8253 42.9761L11.6878 41.5061L10.8253 41ZM1.2287e-06 22.55L1.08963e-06 21.55L-1.74616 21.55L-0.862496 23.0561L1.2287e-06 22.55ZM21.6506 22.55L22.5131 23.0561L23.3968 21.55L21.6506 21.55L21.6506 22.55ZM14.3253 22.55L13.3253 22.55L13.3253 23.55L14.3253 23.55L14.3253 22.55ZM14.3253 1.01874e-06L15.3253 8.79667e-07L15.3253 -0.999999L14.3253 -0.999999L14.3253 1.01874e-06ZM6.32532 2.13131e-06L6.32532 -0.999998L5.32532 -0.999998L5.32532 2.27038e-06L6.32532 2.13131e-06ZM6.32533 22.55L6.32533 23.55L7.32533 23.55L7.32533 22.55L6.32533 22.55ZM11.6878 40.4939L0.862498 22.0439L-0.862496 23.0561L9.96282 41.5061L11.6878 40.4939ZM20.7881 22.0439L9.96282 40.4939L11.6878 41.5061L22.5131 23.0561L20.7881 22.0439ZM14.3253 23.55L21.6506 23.55L21.6506 21.55L14.3253 21.55L14.3253 23.55ZM13.3253 1.15781e-06L13.3253 22.55L15.3253 22.55L15.3253 8.79667e-07L13.3253 1.15781e-06ZM6.32532 1L14.3253 1L14.3253 -0.999999L6.32532 -0.999998L6.32532 1ZM7.32533 22.55L7.32532 1.99224e-06L5.32532 2.27038e-06L5.32532 22.55L7.32533 22.55ZM1.36777e-06 23.55L6.32533 23.55L6.32533 21.55L1.08963e-06 21.55L1.36777e-06 23.55Z" fill="#131313" mask="url(#path-1-inside-1_71_5092)"/>
</svg>
