<svg width="41" height="22" viewBox="0 0 41 22" fill="none" xmlns="http://www.w3.org/2000/svg">
<mask id="path-1-inside-1_71_5083" fill="white">
<path fill-rule="evenodd" clip-rule="evenodd" d="M22.55 21.6506L41 10.8253L22.55 0L22.55 7.32532H0V15.3253H22.55V21.6506Z"/>
</mask>
<path d="M41 10.8253L41.5061 11.6878L42.976 10.8253L41.5061 9.96282L41 10.8253ZM22.55 21.6506H21.55V23.3968L23.0561 22.5131L22.55 21.6506ZM22.55 0L23.0561 -0.862498L21.55 -1.74616V-2.60378e-07L22.55 0ZM22.55 7.32532V8.32532H23.55V7.32532H22.55ZM0 7.32532V6.32532H-1V7.32532H0ZM0 15.3253H-1V16.3253H0V15.3253ZM22.55 15.3253H23.55V14.3253H22.55V15.3253ZM40.4939 9.96282L22.0439 20.7881L23.0561 22.5131L41.5061 11.6878L40.4939 9.96282ZM22.0439 0.862498L40.4939 11.6878L41.5061 9.96282L23.0561 -0.862498L22.0439 0.862498ZM23.55 7.32532L23.55 2.60378e-07L21.55 -2.60378e-07L21.55 7.32532L23.55 7.32532ZM0 8.32532H22.55V6.32532H0V8.32532ZM1 15.3253V7.32532H-1V15.3253H1ZM22.55 14.3253H0V16.3253H22.55V14.3253ZM23.55 21.6506V15.3253H21.55V21.6506H23.55Z" fill="#131313" mask="url(#path-1-inside-1_71_5083)"/>
</svg>
