<svg width="41" height="22" viewBox="0 0 41 22" fill="none" xmlns="http://www.w3.org/2000/svg">
<mask id="path-1-inside-1_71_5089" fill="white">
<path fill-rule="evenodd" clip-rule="evenodd" d="M18 0.000242233L0 10.8256L18 21.6509L18 14H41V6H18V0.000242233Z"/>
</mask>
<path d="M0 10.8256L-0.515381 9.9686L-1.94031 10.8256L-0.515381 11.6825L0 10.8256ZM18 0.000242233H19V-1.76808L17.4846 -0.856718L18 0.000242233ZM18 21.6509L17.4846 22.5078L19 23.4192V21.6509L18 21.6509ZM18 14V13H17V14L18 14ZM41 14V15H42V14H41ZM41 6H42V5H41V6ZM18 6H17V7H18V6ZM0.515381 11.6825L18.5154 0.857203L17.4846 -0.856718L-0.515381 9.9686L0.515381 11.6825ZM18.5154 20.7939L0.515381 9.9686L-0.515381 11.6825L17.4846 22.5078L18.5154 20.7939ZM17 14L17 21.6509L19 21.6509L19 14L17 14ZM41 13H18V15H41V13ZM40 6V14H42V6H40ZM18 7H41V5H18V7ZM17 0.000242233V6H19V0.000242233H17Z" fill="#131313" mask="url(#path-1-inside-1_71_5089)"/>
</svg>
