<svg width="115" height="48" viewBox="0 0 115 48" fill="none" xmlns="http://www.w3.org/2000/svg">
<path d="M35.6053 42.7416V22.6398H51.3571C57.1121 22.6398 58.7062 24.9904 58.7062 27.368V27.6112C58.7062 30.232 56.4096 31.4208 54.8965 31.6369C57.0851 31.9882 59.7599 33.231 59.7599 36.6084V36.8785C59.7599 39.9046 57.9226 42.7416 51.4112 42.7416H35.6053ZM49.8981 27.0978H42.0627V30.3401H49.8981C51.5192 30.3401 52.0056 29.6376 52.0056 28.746V28.6919C52.0056 27.7463 51.5192 27.0978 49.8981 27.0978ZM50.4115 34.5009H42.0627V38.0674H50.4115C52.3568 38.0674 52.7891 37.1217 52.7891 36.2571V36.149C52.7891 35.2574 52.3568 34.5009 50.4115 34.5009ZM78.816 42.7416L69.8458 33.5282V42.7416H63.4154V22.6398H69.8458V30.6643L78.6809 22.6398H86.5163L76.3303 31.772L87.0837 42.7416H78.816ZM103.404 36.5273H95.7041V42.7416H89.2466V22.6398H103.404C110.321 22.6398 112.293 25.4227 112.293 29.3674V29.6916C112.293 33.6093 110.267 36.5273 103.404 36.5273ZM95.7041 27.4761V31.718H102.864C104.89 31.718 105.593 30.8804 105.593 29.6106V29.5295C105.593 28.3407 104.89 27.4761 102.864 27.4761H95.7041Z" fill="white"/>
<g clip-path="url(#clip0_40_698)">
<path d="M22.1518 11.0185C22.1518 4.93314 17.1929 0 11.0759 0C4.95884 0 0 4.93314 0 11.0185V31.22C0 37.3054 4.95884 42.2385 11.0759 42.2385C17.1929 42.2385 22.1518 37.3054 22.1518 31.22V11.0185Z" fill="#FF0090"/>
<path d="M22.1517 22.0369C28.2687 22.0369 33.2276 17.1038 33.2276 11.0185C33.2276 4.93314 28.2687 0 22.1517 0C16.0346 0 11.0758 4.93314 11.0758 11.0185C11.0758 17.1038 16.0346 22.0369 22.1517 22.0369Z" fill="#8FFF00"/>
<mask id="mask0_40_698" style="mask-type:luminance" maskUnits="userSpaceOnUse" x="11" y="0" width="23" height="23">
<path d="M22.1517 22.0369C28.2687 22.0369 33.2276 17.1038 33.2276 11.0185C33.2276 4.93314 28.2687 0 22.1517 0C16.0346 0 11.0758 4.93314 11.0758 11.0185C11.0758 17.1038 16.0346 22.0369 22.1517 22.0369Z" fill="white"/>
</mask>
<g mask="url(#mask0_40_698)">
<path d="M22.1518 11.0185C22.1518 4.93314 17.1929 0 11.0759 0C4.95884 0 0 4.93314 0 11.0185V31.22C0 37.3054 4.95884 42.2385 11.0759 42.2385C17.1929 42.2385 22.1518 37.3054 22.1518 31.22V11.0185Z" fill="#131313"/>
</g>
</g>
<defs>
<clipPath id="clip0_40_698">
<rect width="33.2276" height="42.2385" fill="white"/>
</clipPath>
</defs>
</svg>
