<svg width="114" height="47" viewBox="0 0 114 47" fill="none" xmlns="http://www.w3.org/2000/svg">
<path d="M35.539 41.5283V21.4265H51.2908C57.0458 21.4265 58.6399 23.7771 58.6399 26.1548V26.3979C58.6399 29.0187 56.3433 30.2075 54.8303 30.4237C57.0188 30.7749 59.6936 32.0178 59.6936 35.3951V35.6653C59.6936 38.6914 57.8563 41.5283 51.3449 41.5283H35.539ZM49.8318 25.8846H41.9964V29.1268H49.8318C51.4529 29.1268 51.9393 28.4243 51.9393 27.5327V27.4787C51.9393 26.533 51.4529 25.8846 49.8318 25.8846ZM50.3452 33.2877H41.9964V36.8541H50.3452C52.2905 36.8541 52.7228 35.9085 52.7228 35.0439V34.9358C52.7228 34.0442 52.2905 33.2877 50.3452 33.2877ZM78.7497 41.5283L69.7795 32.315V41.5283H63.3491V21.4265H69.7795V29.451L78.6146 21.4265H86.45L76.264 30.5588L87.0174 41.5283H78.7497ZM103.338 35.3141H95.6378V41.5283H89.1804V21.4265H103.338C110.255 21.4265 112.227 24.2094 112.227 28.1541V28.4784C112.227 32.396 110.201 35.3141 103.338 35.3141ZM95.6378 26.2628V30.5047H102.798C104.824 30.5047 105.527 29.6672 105.527 28.3973V28.3162C105.527 27.1274 104.824 26.2628 102.798 26.2628H95.6378Z" fill="#131313"/>
<g clip-path="url(#clip0_3_20538)">
<path d="M22.1518 11.0185C22.1518 4.93314 17.1929 0 11.0759 0C4.95884 0 0 4.93314 0 11.0185V31.22C0 37.3054 4.95884 42.2385 11.0759 42.2385C17.1929 42.2385 22.1518 37.3054 22.1518 31.22V11.0185Z" fill="#FF0090"/>
<path d="M22.1517 22.0369C28.2687 22.0369 33.2276 17.1038 33.2276 11.0185C33.2276 4.93314 28.2687 0 22.1517 0C16.0346 0 11.0758 4.93314 11.0758 11.0185C11.0758 17.1038 16.0346 22.0369 22.1517 22.0369Z" fill="#8FFF00"/>
<mask id="mask0_3_20538" style="mask-type:luminance" maskUnits="userSpaceOnUse" x="11" y="0" width="23" height="23">
<path d="M22.1517 22.0369C28.2687 22.0369 33.2276 17.1038 33.2276 11.0185C33.2276 4.93314 28.2687 0 22.1517 0C16.0346 0 11.0758 4.93314 11.0758 11.0185C11.0758 17.1038 16.0346 22.0369 22.1517 22.0369Z" fill="white"/>
</mask>
<g mask="url(#mask0_3_20538)">
<path d="M22.1518 11.0185C22.1518 4.93314 17.1929 0 11.0759 0C4.95884 0 0 4.93314 0 11.0185V31.22C0 37.3054 4.95884 42.2385 11.0759 42.2385C17.1929 42.2385 22.1518 37.3054 22.1518 31.22V11.0185Z" fill="#131313"/>
</g>
</g>
<defs>
<clipPath id="clip0_3_20538">
<rect width="33" height="43" fill="white"/>
</clipPath>
</defs>
</svg>
