<svg width="20" height="20" viewBox="0 0 20 20" fill="none" xmlns="http://www.w3.org/2000/svg">
<circle cx="10" cy="10" r="10" fill="#8FFF00"/>
<path d="M7.53377 4.42272L8.16202 4.22205C8.75002 4.03422 9.37885 4.33814 9.63085 4.93197L10.1325 6.11497C10.3513 6.63005 10.2299 7.23614 9.83269 7.61297L8.72844 8.6618C8.79649 9.28947 9.00727 9.90722 9.36077 10.5151C9.69693 11.103 10.1474 11.6177 10.6855 12.0288L12.0132 11.5855C12.516 11.4181 13.0638 11.6111 13.3724 12.0644L14.091 13.1202C14.4504 13.6476 14.3856 14.3744 13.9405 14.8212L13.4634 15.3001C12.9885 15.7767 12.3107 15.95 11.683 15.754C10.2021 15.292 8.84044 13.9206 7.59794 11.6397C6.35388 9.355 5.91483 7.41678 6.28077 5.82505C6.43477 5.15539 6.91194 4.62164 7.53494 4.42272" fill="#131313"/>
</svg>
