<svg width="18" height="16" viewBox="0 0 18 16" fill="none" xmlns="http://www.w3.org/2000/svg">
<path d="M16.2582 1.04526C16.2582 1.04526 17.877 0.414011 17.7415 1.94693C17.697 2.57818 17.2924 4.78776 16.9774 7.17734L15.8982 14.2565C15.8982 14.2565 15.8082 15.2936 14.9986 15.474C14.1895 15.654 12.9753 14.8428 12.7503 14.6623C12.5703 14.5269 9.37779 12.4978 8.25363 11.5061C7.93863 11.2353 7.57863 10.6944 8.29863 10.0632L13.0203 5.55401C13.5599 5.01234 14.0995 3.74984 11.8511 5.28318L5.55529 9.56651C5.55529 9.56651 4.83571 10.0178 3.48696 9.61193L0.563628 8.70984C0.563628 8.70984 -0.515538 8.03359 1.32821 7.35734C5.82529 5.23818 11.3565 3.07401 16.2578 1.04484" fill="#131313"/>
</svg>
