<svg width="50" height="50" viewBox="0 0 50 50" fill="none" xmlns="http://www.w3.org/2000/svg">
<g clip-path="url(#clip0_49_6802)">
<path d="M25 0C11.1825 0 0 11.1813 0 25C0 38.8173 11.1813 50 25 50C38.8175 50 50 38.8187 50 25C50 11.1825 38.8187 0 25 0ZM25 46.5116C13.1385 46.5116 3.48838 36.8616 3.48838 25C3.48838 13.1384 13.1385 3.48838 25 3.48838C36.8616 3.48838 46.5116 13.1384 46.5116 25C46.5116 36.8616 36.8616 46.5116 25 46.5116Z" fill="white"/>
<path d="M24.2602 31.6333C22.878 31.6333 21.7592 32.7851 21.7592 34.1671C21.7592 35.5164 22.8451 36.7011 24.2602 36.7011C25.6752 36.7011 26.7939 35.5164 26.7939 34.1671C26.7939 32.7851 25.6422 31.6333 24.2602 31.6333ZM24.6879 12.4482C20.2453 12.4482 18.2051 15.081 18.2051 16.8579C18.2051 18.1413 19.291 18.7337 20.1795 18.7337C21.9565 18.7337 21.2326 16.1997 24.5892 16.1997C26.2345 16.1997 27.5509 16.9237 27.5509 18.4375C27.5509 20.2145 25.708 21.2346 24.6221 22.156C23.6677 22.9785 22.4173 24.3278 22.4173 27.1579C22.4173 28.869 22.878 29.3627 24.2271 29.3627C25.8395 29.3627 26.1686 28.6388 26.1686 28.0134C26.1686 26.3022 26.2016 25.315 28.0115 23.9C28.9 23.209 31.6971 20.9712 31.6971 17.8779C31.6971 14.7847 28.9 12.4482 24.6879 12.4482Z" fill="white"/>
</g>
<defs>
<clipPath id="clip0_49_6802">
<rect width="50" height="50" fill="white"/>
</clipPath>
</defs>
</svg>
