<svg width="50" height="50" viewBox="0 0 50 50" fill="none" xmlns="http://www.w3.org/2000/svg">
<path d="M40.3828 41.0922C40.3828 40.3516 40.914 39.7547 41.6312 39.5672C42.6842 39.2895 43.6158 38.6714 44.281 37.8092C44.9463 36.947 45.3078 35.889 45.3093 34.8V14.2938C45.3093 12.986 44.7906 11.7329 43.8656 10.8079L41.4187 8.35942C40.9613 7.90211 40.4183 7.53938 39.8208 7.29193C39.2232 7.04447 38.5827 6.91715 37.9359 6.91724H12.0609C10.7547 6.91724 9.50154 7.43599 8.57654 8.35942L6.1281 10.8079C5.67079 11.2653 5.30805 11.8082 5.0606 12.4058C4.81315 13.0034 4.68583 13.6439 4.68591 14.2907V34.8016C4.68746 35.8906 5.04898 36.9485 5.71421 37.8107C6.37944 38.6729 7.31106 39.291 8.36404 39.5688C9.08123 39.7563 9.61248 40.3532 9.61248 41.0938C9.61248 42.1141 8.64841 42.861 7.65935 42.6141C5.91838 42.1763 4.37324 41.1701 3.26862 39.755C2.164 38.34 1.56304 36.5968 1.56091 34.8016V14.2922C1.56091 12.1547 2.41091 10.1063 3.92185 8.59536L6.37029 6.14849C7.11764 5.4013 8.00484 4.80865 8.98124 4.40436C9.95765 4.00007 11.0041 3.79207 12.0609 3.79224H37.9406C40.075 3.79224 42.1218 4.64067 43.6297 6.15005L46.0765 8.59849C46.8247 9.34686 47.4182 10.2353 47.823 11.213C48.2278 12.1908 48.4361 13.2387 48.4359 14.2969V34.8016C48.4341 36.5969 47.8332 38.3402 46.7285 39.7553C45.6239 41.1704 44.0786 42.1765 42.3375 42.6141C42.1061 42.672 41.8646 42.6764 41.6313 42.6271C41.3979 42.5778 41.1789 42.476 40.9907 42.3296C40.8025 42.1831 40.6501 41.9957 40.5451 41.7816C40.44 41.5675 40.3851 41.3323 40.3843 41.0938L40.3828 41.0922Z" fill="white"/>
<path d="M3.12341 10.0408H46.8734V13.1658H3.12341V10.0408ZM24.0187 38.9392C23.5212 38.9405 23.0283 38.8431 22.5686 38.6527C22.1089 38.4623 21.6915 38.1826 21.3406 37.8298L19.6 36.0892C19.3154 35.7945 19.1579 35.3998 19.1614 34.9901C19.165 34.5805 19.3293 34.1886 19.619 33.8989C19.9087 33.6092 20.3006 33.4448 20.7103 33.4413C21.12 33.4377 21.5147 33.5952 21.8094 33.8798L23.55 35.6205C23.8906 35.9611 24.1531 35.9595 24.4875 35.6205L30.6469 29.4611C30.9415 29.1765 31.3362 29.019 31.7459 29.0225C32.1556 29.0261 32.5475 29.1904 32.8372 29.4801C33.1269 29.7698 33.2912 30.1617 33.2948 30.5714C33.2983 30.9811 33.1408 31.3758 32.8562 31.6705L26.6969 37.8283C26.346 38.1812 25.9287 38.4609 25.469 38.6514C25.0093 38.8418 24.5163 38.9407 24.0187 38.9392Z" fill="white"/>
<path d="M25.361 48.033C17.6078 48.033 11.2985 41.7251 11.2985 33.9705C11.2985 26.2158 17.6078 19.908 25.361 19.908C33.1141 19.908 39.4235 26.2158 39.4235 33.9705C39.4235 41.7251 33.1141 48.033 25.361 48.033ZM25.361 23.033C19.3297 23.033 14.4235 27.9392 14.4235 33.9705C14.4235 40.0017 19.3297 44.908 25.361 44.908C31.3922 44.908 36.2985 40.0001 36.2985 33.9705C36.2985 27.9408 31.3907 23.033 25.361 23.033Z" fill="white"/>
</svg>
