<svg width="64" height="64" viewBox="0 0 64 64" fill="none" xmlns="http://www.w3.org/2000/svg">
<path d="M20.0159 40.7067C20.086 40.9599 20.2052 41.1968 20.3668 41.4039C20.5284 41.611 20.7292 41.7842 20.9578 41.9138C21.1863 42.0433 21.4381 42.1265 21.6989 42.1587C21.9596 42.1908 22.2241 42.1714 22.4773 42.1013C22.7305 42.0313 22.9674 41.9121 23.1745 41.7505C23.3816 41.5889 23.5549 41.3881 23.6844 41.1595C23.8139 40.931 23.8971 40.6791 23.9293 40.4184C23.9615 40.1577 23.942 39.8932 23.8719 39.64L20.0159 40.7067ZM8.53328 12.6C8.27909 12.5257 8.0127 12.5027 7.74954 12.5322C7.48639 12.5618 7.23172 12.6433 7.0003 12.772C6.76889 12.9007 6.56535 13.0741 6.40148 13.2821C6.23761 13.4901 6.11668 13.7286 6.04571 13.9837C5.97474 14.2388 5.95513 14.5055 5.98803 14.7683C6.02093 15.031 6.10569 15.2846 6.23737 15.5144C6.36906 15.7441 6.54506 15.9454 6.75516 16.1066C6.96525 16.2678 7.20527 16.3856 7.46128 16.4533L8.53328 12.6ZM53.8346 41.9333C54.095 41.8731 54.3407 41.7613 54.5572 41.6045C54.7737 41.4477 54.9565 41.2491 55.095 41.0205C55.2334 40.7918 55.3246 40.5377 55.3631 40.2732C55.4017 40.0087 55.3868 39.7392 55.3194 39.4805C55.2521 39.2219 55.1335 38.9794 54.9708 38.7673C54.8081 38.5552 54.6045 38.3779 54.3722 38.2459C54.1398 38.1138 53.8833 38.0297 53.6178 37.9984C53.3523 37.9672 53.0833 37.9895 52.8266 38.064L53.8346 41.9333ZM27.1919 46.824C28.0186 49.8107 26.2053 52.9653 22.9946 53.8L23.9999 57.6693C29.2719 56.3013 32.4933 50.9973 31.0479 45.7573L27.1919 46.824ZM22.9946 53.8C19.7626 54.64 16.5199 52.7627 15.6879 49.7493L11.8319 50.816C13.2719 56.0293 18.7493 59.0347 23.9999 57.6693L22.9946 53.8ZM15.6879 49.7493C14.8613 46.7627 16.6746 43.608 19.8853 42.7733L18.8799 38.9067C13.6079 40.2747 10.3839 45.576 11.8319 50.816L15.6879 49.7493ZM19.8853 42.7733C23.1173 41.9333 26.3599 43.8107 27.1919 46.824L31.0479 45.7573C29.6079 40.544 24.1306 37.5387 18.8799 38.904L19.8853 42.7733ZM23.8719 39.64L18.1333 18.8667L14.2773 19.9333L20.0159 40.7067L23.8719 39.64ZM13.0773 13.8587L8.53328 12.6L7.46128 16.4533L12.0079 17.7147L13.0773 13.8587ZM18.1333 18.8667C17.7949 17.6663 17.1514 16.574 16.2653 15.6963C15.3792 14.8187 14.2808 14.1855 13.0773 13.8587L12.0133 17.7147C13.1466 18.0293 13.9893 18.8907 14.2773 19.9333L18.1333 18.8667ZM29.6266 48.2267L53.8346 41.9333L52.8293 38.064L28.6186 44.3573L29.6266 48.2267Z" fill="white"/>
<path d="M25.5066 23.28C24.2132 18.6 23.5679 16.2586 24.6666 14.416C25.7626 12.5706 28.1759 11.944 33.0026 10.688L38.1226 9.35996C42.9492 8.10662 45.3626 7.47729 47.2639 8.54129C49.1652 9.60796 49.8132 11.9466 51.1039 16.6293L52.4772 21.5946C53.7706 26.2746 54.4186 28.616 53.3199 30.4613C52.2212 32.304 49.8079 32.9333 44.9812 34.1866L39.8612 35.5173C35.0346 36.7706 32.6212 37.3973 30.7199 36.3333C28.8186 35.2666 28.1732 32.928 26.8799 28.248L25.5066 23.28Z" stroke="white" stroke-width="4"/>
</svg>
