<svg width="50" height="50" viewBox="0 0 50 50" fill="none" xmlns="http://www.w3.org/2000/svg">
<path d="M32.8125 10.939H17.1875C16.3246 10.939 15.625 11.6385 15.625 12.5015C15.625 13.3644 16.3246 14.064 17.1875 14.064H32.8125C33.6754 14.064 34.375 13.3644 34.375 12.5015C34.375 11.6385 33.6754 10.939 32.8125 10.939Z" fill="white"/>
<path d="M32.8125 23.4141C33.6754 23.4141 34.375 22.7145 34.375 21.8516C34.375 20.9886 33.6754 20.2891 32.8125 20.2891C31.9496 20.2891 31.25 20.9886 31.25 21.8516C31.25 22.7145 31.9496 23.4141 32.8125 23.4141Z" fill="white"/>
<path d="M18.9968 32.8672C19.8598 32.8672 20.5593 32.1676 20.5593 31.3047C20.5593 30.4417 19.8598 29.7422 18.9968 29.7422C18.1339 29.7422 17.4343 30.4417 17.4343 31.3047C17.4343 32.1676 18.1339 32.8672 18.9968 32.8672Z" fill="white"/>
<path d="M32.8125 29.5547C33.6754 29.5547 34.375 28.8551 34.375 27.9922C34.375 27.1292 33.6754 26.4297 32.8125 26.4297C31.9496 26.4297 31.25 27.1292 31.25 27.9922C31.25 28.8551 31.9496 29.5547 32.8125 29.5547Z" fill="white"/>
<path d="M32.8125 35.6968C33.6754 35.6968 34.375 34.9972 34.375 34.1343C34.375 33.2713 33.6754 32.5718 32.8125 32.5718C31.9496 32.5718 31.25 33.2713 31.25 34.1343C31.25 34.9972 31.9496 35.6968 32.8125 35.6968Z" fill="white"/>
<path d="M25.0094 48.2641C24.5219 48.2641 24.0313 48.1703 23.5672 47.9859L17.4657 45.5453C17.2841 45.4726 17.0816 45.4726 16.9 45.5453L13.1438 47.05C12.5544 47.2868 11.9158 47.3752 11.2843 47.3074C10.6527 47.2395 10.0475 47.0176 9.5219 46.6609C8.99557 46.3055 8.56458 45.8263 8.2668 45.2653C7.96902 44.7044 7.81356 44.0788 7.81409 43.4438V36.1484H10.9391V43.4438C10.9391 43.7953 11.1485 43.9891 11.2735 44.0734C11.3985 44.1594 11.6594 44.2812 11.9813 44.15L15.7391 42.6453C16.6661 42.2727 17.7012 42.2727 18.6282 42.6453L24.7282 45.0859C24.9075 45.1583 25.1078 45.1588 25.2875 45.0875L31.5672 42.6328C32.4978 42.2673 33.5337 42.2763 34.4578 42.6578L38.0156 44.1172C38.1306 44.1661 38.2561 44.1852 38.3804 44.1727C38.5047 44.1601 38.6238 44.1163 38.7266 44.0453C38.8317 43.9773 38.9178 43.8837 38.9769 43.7733C39.0359 43.6629 39.0659 43.5393 39.0641 43.4141V9.375C39.0641 6.79062 41.1672 4.6875 43.7516 4.6875C46.336 4.6875 48.4391 6.79062 48.4391 9.375H45.3141C45.2961 8.97269 45.1236 8.59282 44.8326 8.31449C44.5415 8.03617 44.1543 7.88083 43.7516 7.88083C43.3489 7.88083 42.9617 8.03617 42.6706 8.31449C42.3796 8.59282 42.2071 8.97269 42.1891 9.375V43.4109C42.1899 44.0489 42.0331 44.6773 41.7327 45.2401C41.4324 45.803 40.9977 46.283 40.4672 46.6375C39.9376 46.9932 39.3284 47.2128 38.6937 47.2768C38.0589 47.3409 37.4182 47.2474 36.8281 47.0047L33.2703 45.5453C33.0897 45.4695 32.8865 45.4678 32.7047 45.5406L26.425 47.9953C25.9744 48.1716 25.4948 48.2622 25.011 48.2625L25.0094 48.2641Z" fill="white"/>
<path d="M42.6984 26.5625H40.6266V23.4375H42.6984C44.1406 23.4375 45.3141 22.2656 45.3141 20.8234V9.375C45.3141 6.79063 43.2109 4.6875 40.6266 4.6875H15.625C13.0406 4.6875 10.9375 6.79063 10.9375 9.375V20.5219H7.8125V9.375C7.8125 5.06719 11.3172 1.5625 15.625 1.5625H40.625C44.9328 1.5625 48.4375 5.06719 48.4375 9.375V20.8234C48.4354 22.3452 47.8299 23.804 46.7537 24.8798C45.6776 25.9557 44.2202 26.5608 42.6984 26.5625Z" fill="white"/>
<path d="M21.875 37.7095H6.25C3.66562 37.7095 1.5625 35.6063 1.5625 33.022V23.647C1.5625 21.0626 3.66562 18.9595 6.25 18.9595H21.875C24.4594 18.9595 26.5625 21.0626 26.5625 23.647V33.022C26.5625 35.6063 24.4594 37.7095 21.875 37.7095ZM6.25 22.0845C5.3875 22.0845 4.6875 22.786 4.6875 23.647V33.022C4.6875 33.8829 5.3875 34.5845 6.25 34.5845H21.875C22.7375 34.5845 23.4375 33.8829 23.4375 33.022V23.647C23.4375 22.786 22.7375 22.0845 21.875 22.0845H6.25Z" fill="white"/>
<path d="M3.125 25H25V28.125H3.125V25Z" fill="white"/>
</svg>
