<svg width="56" height="56" viewBox="0 0 56 56" fill="none" xmlns="http://www.w3.org/2000/svg">
<path d="M48.16 40.8333C48.1181 38.5707 47.2171 36.4087 45.6399 34.786C44.0626 33.1632 41.9272 32.2012 39.6667 32.0949V5.47159C39.6636 4.63818 39.3304 3.83996 38.74 3.25174C38.1496 2.66352 37.3501 2.33325 36.5167 2.33325H35.8167C34.9833 2.33325 34.1838 2.66352 33.5934 3.25174C33.003 3.83996 32.6698 4.63818 32.6667 5.47159V32.0949C30.5767 32.1896 28.5864 33.0154 27.0434 34.4283C26.7923 33.9182 26.4246 33.4746 25.97 33.1333C25.2888 32.6493 24.4724 32.3921 23.6367 32.3983C23.3518 30.9563 22.5726 29.659 21.4336 28.7302C20.2945 27.8013 18.867 27.299 17.3972 27.3101C15.9275 27.3212 14.5076 27.8448 13.3827 28.7907C12.2577 29.7367 11.4982 31.0455 11.235 32.4916C9.63865 33.0247 8.25135 34.0483 7.27092 35.4163C6.29049 36.7843 5.76698 38.4269 5.77503 40.1099C5.77342 40.6271 5.82424 41.143 5.92669 41.6499C5.09948 42.0436 4.36787 42.6126 3.78268 43.3174C3.19749 44.0223 2.77275 44.846 2.53796 45.7316C2.30317 46.6171 2.26396 47.5431 2.42305 48.4453C2.58214 49.3474 2.93572 50.2042 3.45922 50.956C3.98273 51.7078 4.66362 52.3366 5.4546 52.7988C6.24557 53.2609 7.12768 53.5454 8.03965 53.6323C8.95162 53.7193 9.87159 53.6067 10.7357 53.3024C11.5997 52.998 12.3872 52.5092 13.0434 51.8699C14.2116 53.0164 15.7815 53.6611 17.4184 53.6666H19.25C20.6283 53.7118 21.9982 53.4363 23.2517 52.8616C23.5144 53.0836 23.8264 53.2396 24.1617 53.3166H48.1717C48.3345 53.3162 48.4954 53.2817 48.6441 53.2154C48.7928 53.1491 48.926 53.0524 49.035 52.9316C49.1436 52.8105 49.2256 52.668 49.2758 52.5133C49.3261 52.3586 49.3434 52.195 49.3267 52.0333L48.16 40.8333ZM35 5.47159C35 5.36488 35.0212 5.25924 35.0624 5.16081C35.1036 5.06237 35.1639 4.97311 35.2399 4.8982C35.3159 4.82329 35.406 4.76424 35.5051 4.72448C35.6041 4.68472 35.71 4.66504 35.8167 4.66659H36.5167C36.7302 4.66659 36.935 4.7514 37.0859 4.90236C37.2369 5.05333 37.3217 5.25809 37.3217 5.47159V32.0833H35V5.47159ZM33.075 34.4166H39.2584C40.7987 34.4185 42.2898 34.9599 43.4726 35.9466C44.6554 36.9334 45.4553 38.3032 45.7334 39.8183H26.6C26.8781 38.3032 27.678 36.9334 28.8608 35.9466C30.0436 34.9599 31.5347 34.4185 33.075 34.4166ZM17.4184 51.3333C16.7306 51.3363 16.0538 51.1604 15.4546 50.8229C14.8553 50.4854 14.354 49.9979 14 49.4083C13.8954 49.2394 13.7494 49.1001 13.5759 49.0035C13.4023 48.9069 13.207 48.8562 13.0084 48.8562C12.8097 48.8562 12.6144 48.9069 12.4409 49.0035C12.2673 49.1001 12.1213 49.2394 12.0167 49.4083C11.6798 49.9659 11.2112 50.4323 10.6519 50.7664C10.0926 51.1006 9.45988 51.2923 8.8092 51.3246C8.15851 51.357 7.50984 51.2291 6.92015 50.9522C6.33047 50.6752 5.81783 50.2576 5.42726 49.7362C5.0367 49.2148 4.78017 48.6054 4.68021 47.9616C4.58025 47.3179 4.63993 46.6594 4.85398 46.0441C5.06804 45.4287 5.42994 44.8754 5.90787 44.4327C6.38581 43.99 6.96516 43.6714 7.59503 43.5049C7.75083 43.4652 7.89673 43.3937 8.02359 43.2949C8.15044 43.1961 8.25551 43.0722 8.3322 42.9309C8.40888 42.7895 8.45553 42.6339 8.46921 42.4737C8.48289 42.3135 8.46331 42.1522 8.4117 41.9999C8.2045 41.3953 8.09808 40.7607 8.09669 40.1216C8.10485 38.8295 8.54781 37.5779 9.35419 36.5683C10.1606 35.5587 11.2834 34.8501 12.5417 34.5566C12.7895 34.5011 13.0125 34.3663 13.1767 34.1726C13.341 33.9788 13.4375 33.7368 13.4517 33.4833C13.4703 32.4281 13.9072 31.4236 14.6664 30.6906C15.4256 29.9577 16.4449 29.5564 17.5 29.5749C18.5551 29.5935 19.5597 30.0304 20.2926 30.7896C21.0256 31.5489 21.4269 32.5681 21.4084 33.6233C21.4686 34.0118 21.6294 34.3778 21.875 34.6849C22.0223 34.7934 22.193 34.8658 22.3733 34.8962C22.5537 34.9266 22.7387 34.9142 22.9134 34.8599C23.4767 34.6887 24.0849 34.7475 24.605 35.0233C25.3284 35.4316 25.1884 36.6799 25.2234 36.7966C24.57 37.9633 23.2167 50.0033 23.2167 50.0033C22.05 51.5549 17.5934 51.3333 17.4184 51.3333ZM41.265 51.0416V46.1533C41.265 45.8438 41.1421 45.5471 40.9233 45.3283C40.7045 45.1095 40.4078 44.9866 40.0984 44.9866C39.7889 44.9866 39.4922 45.1095 39.2734 45.3283C39.0546 45.5471 38.9317 45.8438 38.9317 46.1533V51.0416H33.6234V46.1533C33.6234 45.8438 33.5004 45.5471 33.2817 45.3283C33.0629 45.1095 32.7661 44.9866 32.4567 44.9866C32.1473 44.9866 31.8505 45.1095 31.6317 45.3283C31.4129 45.5471 31.29 45.8438 31.29 46.1533V51.0416H25.4567L26.39 42.1516H45.9434L46.8767 51.0416H41.265Z" fill="white"/>
<path d="M10.0101 29.9365C10.2191 29.9332 10.4238 29.877 10.6051 29.7732C10.8712 29.6154 11.0637 29.3583 11.1402 29.0586C11.2168 28.7588 11.1712 28.441 11.0135 28.1749C10.7136 27.6757 10.5693 27.0984 10.5992 26.5168C10.629 25.9352 10.8316 25.3758 11.181 24.9099C11.5304 24.444 12.0108 24.0929 12.5607 23.9014C13.1107 23.7099 13.7053 23.6867 14.2685 23.8349C14.6426 23.9265 14.9946 24.0925 15.3032 24.323C15.6119 24.5535 15.871 24.8438 16.0651 25.1765C16.223 25.4426 16.48 25.6351 16.7797 25.7116C17.0795 25.7882 17.3973 25.7426 17.6635 25.5849C17.9264 25.4271 18.1166 25.1722 18.193 24.8753C18.2694 24.5783 18.2259 24.2633 18.0718 23.9982C17.7194 23.403 17.2532 22.883 16.6999 22.4679C16.1466 22.0529 15.5169 21.7509 14.8468 21.5792C14.1768 21.4074 13.4795 21.3694 12.7947 21.4672C12.11 21.5649 11.4512 21.7966 10.856 22.149C10.2607 22.5014 9.74076 22.9676 9.3257 23.5209C8.91064 24.0742 8.60863 24.7039 8.43692 25.374C8.26521 26.044 8.22716 26.7413 8.32494 27.4261C8.42271 28.1108 8.65441 28.7696 9.00679 29.3649C9.11005 29.539 9.25685 29.6833 9.43277 29.7835C9.60868 29.8838 9.80765 29.9365 10.0101 29.9365ZM22.3185 22.4932C23.06 22.7267 23.6789 23.2445 24.0397 23.9332C24.4005 24.622 24.4737 25.4256 24.2435 26.1682C24.1518 26.4621 24.1801 26.7804 24.3222 27.0536C24.4642 27.3268 24.7085 27.5327 25.0018 27.6265C25.1148 27.6637 25.2328 27.6834 25.3518 27.6849C25.6091 27.6966 25.8631 27.6229 26.0742 27.4752C26.2852 27.3274 26.4414 27.114 26.5185 26.8682C26.7238 26.2048 26.796 25.5075 26.7311 24.8161C26.6662 24.1247 26.4654 23.453 26.1402 22.8395C25.815 22.2259 25.3718 21.6826 24.8361 21.2408C24.3004 20.799 23.6827 20.4673 23.0185 20.2649C22.7245 20.1732 22.4062 20.2015 22.1331 20.3436C21.8599 20.4856 21.6539 20.7299 21.5601 21.0232C21.513 21.1695 21.4952 21.3237 21.5079 21.4768C21.5205 21.63 21.5633 21.7792 21.6338 21.9158C21.7042 22.0524 21.801 22.1737 21.9185 22.2728C22.036 22.3719 22.1719 22.4468 22.3185 22.4932ZM3.59345 26.2032H3.86179C4.16142 26.1312 4.42038 25.9435 4.58213 25.6812C4.74389 25.4189 4.79529 25.1033 4.72512 24.8032C4.56027 24.0488 4.69757 23.2599 5.1076 22.6056C5.51762 21.9513 6.16771 21.4838 6.91845 21.3032C7.06783 21.2687 7.20896 21.2052 7.33378 21.1161C7.45859 21.0271 7.56465 20.9144 7.6459 20.7844C7.72716 20.6544 7.782 20.5097 7.80732 20.3585C7.83264 20.2073 7.82793 20.0526 7.79345 19.9032C7.75898 19.7538 7.69543 19.6127 7.60641 19.4879C7.5174 19.363 7.40467 19.257 7.27467 19.1757C7.14467 19.0945 6.99994 19.0396 6.84874 19.0143C6.69754 18.989 6.54283 18.9937 6.39345 19.0282C5.03218 19.3472 3.85331 20.1937 3.11603 21.3817C2.37875 22.5696 2.14342 24.0018 2.46179 25.3632C2.53302 25.6074 2.68214 25.8217 2.88645 25.9734C3.09075 26.125 3.33903 26.2057 3.59345 26.2032Z" fill="white"/>
</svg>
