<svg width="18" height="11" viewBox="0 0 18 11" fill="none" xmlns="http://www.w3.org/2000/svg">
<path d="M16.92 10.3175H15.0183C14.2992 10.3175 14.0825 9.73501 12.7933 8.44501C11.6667 7.35918 11.1908 7.22418 10.9058 7.22418C10.5117 7.22418 10.4042 7.33251 10.4042 7.87501V9.58501C10.4042 10.0475 10.2542 10.3183 9.04583 10.3183C7.87358 10.2396 6.7368 9.88347 5.72914 9.27931C4.72148 8.67515 3.87177 7.84024 3.25 6.84335C1.77366 5.00587 0.746423 2.84925 0.25 0.545013C0.25 0.260013 0.358333 0.00167999 0.901667 0.00167999H2.80167C3.29 0.00167999 3.46583 0.21918 3.6575 0.72168C4.58 3.43668 6.15417 5.79835 6.79333 5.79835C7.03833 5.79835 7.145 5.69001 7.145 5.07918V2.28251C7.06417 1.00668 6.38667 0.89918 6.38667 0.437514C6.39524 0.315714 6.45095 0.202054 6.54198 0.120674C6.63301 0.0392948 6.75217 -0.00339235 6.87417 0.00167999H9.86083C10.2692 0.00167999 10.4042 0.205013 10.4042 0.693347V4.46835C10.4042 4.87585 10.5792 5.01085 10.7025 5.01085C10.9475 5.01085 11.1358 4.87585 11.585 4.42751C12.5478 3.25334 13.3344 1.94515 13.92 0.54418C13.9799 0.375974 14.0933 0.231992 14.2427 0.134194C14.3921 0.0363964 14.5694 -0.00984856 14.7475 0.00251326H16.6483C17.2183 0.00251326 17.3392 0.287514 17.2183 0.69418C16.527 2.24286 15.6715 3.71293 14.6667 5.07918C14.4617 5.39168 14.38 5.55418 14.6667 5.92085C14.855 6.20585 15.5217 6.76251 15.9692 7.29168C16.6208 7.94168 17.1617 8.69335 17.5708 9.51668C17.7342 10.0467 17.4625 10.3175 16.92 10.3175Z" fill="#131313"/>
</svg>
